<svg xmlns="http://www.w3.org/2000/svg" viewBox="0 0 187.37 71.04"><defs><style>.cls-1{fill:#fff;}.cls-2{fill:#ce674b;}</style></defs><title>eva-komi-logo-white-mobilee</title><g id="Слой_2" data-name="Слой 2"><g id="Слой_1-2" data-name="Слой 1"><path class="cls-1" d="M8.87,71,6.38,69.68a11.15,11.15,0,0,1-4.1-3.94A17.35,17.35,0,0,1,0,59.43H6.56a7.93,7.93,0,0,0,1.11,2.86,5.1,5.1,0,0,0,1.87,1.79A5,5,0,0,0,12,64.7a5.9,5.9,0,0,0,3-.73A4.68,4.68,0,0,0,17,61.85a7.67,7.67,0,0,0,.66-3.34v-9.2A7.94,7.94,0,0,0,17,46a4.62,4.62,0,0,0-1.91-2.12,5.9,5.9,0,0,0-3-.73,4.92,4.92,0,0,0-2.46.62,5.55,5.55,0,0,0-1.87,1.8,8.4,8.4,0,0,0-1.14,2.85H0a17.12,17.12,0,0,1,2.25-6.31,11.08,11.08,0,0,1,4.13-3.94A11.56,11.56,0,0,1,12,36.76a13.57,13.57,0,0,1,6.56,1.47,9.9,9.9,0,0,1,4.16,4.29,14.7,14.7,0,0,1,1.43,6.78v9.21a14.7,14.7,0,0,1-1.43,6.78,9.8,9.8,0,0,1-4.16,4.27A13.71,13.71,0,0,1,12,71Zm-1.18-20h13V57h-13Z"/><path class="cls-1" d="M30.42,46.73h6.3v24h-6.3Zm3.23,19h7.71a3.21,3.21,0,0,0,2.17-.67,2.37,2.37,0,0,0,.79-1.87v-.09a2.29,2.29,0,0,0-.79-1.83,3.29,3.29,0,0,0-2.17-.64H33.65V55.71h7.71a2.79,2.79,0,0,0,1.85-.55,1.92,1.92,0,0,0,.65-1.54,1.82,1.82,0,0,0-.65-1.46,2.84,2.84,0,0,0-1.81-.51H33.65V46.73h9.07a8.54,8.54,0,0,1,5.52,1.57,5.31,5.31,0,0,1,2,4.4A5.56,5.56,0,0,1,49,56.32a5.39,5.39,0,0,1-3.33,1.81,6,6,0,0,1,3.65,2.19,6.64,6.64,0,0,1,1.29,4.19v.06a5.38,5.38,0,0,1-2.09,4.54,9.68,9.68,0,0,1-5.92,1.58h-9Z"/><path class="cls-1" d="M56.73,69.21c-1.27-1.23-1.91-3.08-1.91-5.58A6.58,6.58,0,0,1,57,58.29c1.41-1.19,3.56-1.77,6.4-1.77h6l.32,4.82h-6.3a3.35,3.35,0,0,0-2.15.57,2,2,0,0,0-.71,1.72,1.9,1.9,0,0,0,.89,1.74,5.28,5.28,0,0,0,2.73.57,9.36,9.36,0,0,0,3.78-.58,1.89,1.89,0,0,0,1.23-1.8l.49,3.49a3.28,3.28,0,0,1-1.2,2.19,6.93,6.93,0,0,1-2.63,1.35,12,12,0,0,1-3.33.45Q58.64,71,56.73,69.21ZM69.16,55.5a3.08,3.08,0,0,0-1.11-2.56A4.86,4.86,0,0,0,64.9,52a8.51,8.51,0,0,0-2.65.44,7.82,7.82,0,0,0-2.36,1.23L56,49.84a9.39,9.39,0,0,1,3.78-2.55A14.32,14.32,0,0,1,65,46.38a12.52,12.52,0,0,1,5.36,1,7.62,7.62,0,0,1,3.38,3,9.39,9.39,0,0,1,1.17,4.81V70.7H69.11Z"/><path class="cls-2" d="M81.61,37.11h6.31V70.69H81.61ZM84.35,51h11.9v6.09H84.35Zm6.58,4.94,5.76-2.43,11.57,17.21h-7.92Zm0-3.65,8.62-15.15h7.3L95.65,56.39Z"/><path class="cls-2" d="M115.08,69.81a8.15,8.15,0,0,1-3.53-3.56,12.15,12.15,0,0,1-1.22-5.65V56.7a11.81,11.81,0,0,1,1.22-5.57,8.16,8.16,0,0,1,3.53-3.54,13.59,13.59,0,0,1,11.2,0,8.16,8.16,0,0,1,3.53,3.54A11.8,11.8,0,0,1,131,56.7v3.94a11.92,11.92,0,0,1-1.21,5.6,8.21,8.21,0,0,1-3.53,3.54,13.36,13.36,0,0,1-11.2,0Zm8.56-6a4.45,4.45,0,0,0,1-3.15V56.73a4.36,4.36,0,0,0-1-3.15,3.91,3.91,0,0,0-3-1.11,3.85,3.85,0,0,0-3,1.11,4.32,4.32,0,0,0-1,3.15v3.94a4.44,4.44,0,0,0,1,3.15,3.85,3.85,0,0,0,3,1.12,3.92,3.92,0,0,0,3-1.12Z"/><path class="cls-2" d="M154.57,46.73h5.69v24h-5.75V54.93l.23,1.48L150.4,66h-3.74l-4.34-9.63.23-1.48V70.7H136.8v-24h5.67l6.06,13Z"/><path class="cls-2" d="M181.32,70.67V54.81l.55.6L172.2,70.67h-5.48V46.73h6.05V63l-.55-.6,9.72-15.65h5.43V70.67Z"/><path class="cls-1" d="M88.13,6.24h4A1.16,1.16,0,0,0,93,5.92c2-1.76,4-3.51,6-5.27a2.12,2.12,0,0,1,1.5-.54q9.3.17,18.6.28a2.31,2.31,0,0,1,2,1C122.33,3.21,123.69,5,125,6.81a5.77,5.77,0,0,1,.72,3.86,7.84,7.84,0,0,1-1.16,4.05,2.73,2.73,0,0,1-2.29,1.34c-.47,0-.58-.13-.6-.59a5.13,5.13,0,0,0-3.87-4.85A5.22,5.22,0,0,0,111,15.34c0,.41-.14.54-.56.53l-15-.34a13.07,13.07,0,0,0-1.77,0c-.59.06-.91-.33-.82-.93a4.92,4.92,0,0,0-3.82-5.46,5.47,5.47,0,0,0-6,2.27,5,5,0,0,0-.77,3.19c.06.64-.21.73-.74.68-1.24-.12-1.73-.62-1.59-1.88a3.11,3.11,0,0,1,.78-2.2c.39-.37.37-1.18.51-1.8a4.83,4.83,0,0,1,1-2.35,2.51,2.51,0,0,1,2-.87c1.24,0,2.5,0,3.75,0Zm28.48.46c-1.29-1.84-2.51-3.57-3.71-5.31a.61.61,0,0,0-.58-.21c-1.77,0-3.54,0-5.32-.07-.38,0-.47.13-.49.49-.06,1.4-.12,2.8-.25,4.19-.06.66.18.82.78.8,2,0,4,0,6,.1,1.12,0,2.25,0,3.52,0ZM94.35,6.31,105,6.5c.36,0,.43-.16.44-.47.08-1.44.15-2.88.26-4.31,0-.46-.09-.61-.56-.61-1.51,0-3,0-4.53,0a1,1,0,0,0-.66.24c-1.8,1.63-3.61,3.23-5.56,5Zm19.88-4.87c1.08,1.62,2.23,3.31,3.35,5a.67.67,0,0,0,.66.3l5.19.14c.12,0,.28.06.34-.1s-.07-.23-.15-.33l-3.26-4.66a.65.65,0,0,0-.57-.38Z"/><path class="cls-1" d="M104.86,22a6.22,6.22,0,0,1,2,5.12c0,.21,0,.35-.29.33a.35.35,0,0,1-.37-.33v0a8.61,8.61,0,0,0-.24-1.68,4.52,4.52,0,0,0-4.37-3.49c-.9,0-1.8,0-2.7,0-2.79-.21-4.28,1.35-5.07,3.63-.14.41-.25.85-.75,1-.19.05-.39.28-.59.05s0-.37,0-.55a9.56,9.56,0,0,1,2.25-3.87,1.4,1.4,0,0,0,.1-.16,1.09,1.09,0,0,0-.71-.09l-25.38-.08c-.55,0-.82-.09-.72-.7a5.46,5.46,0,0,0,0-1c0-.63-.11-1.25.88-1.08.33.05.3-.25.29-.46,0-.85-.07-1.71-.08-2.56C69,11,69,5.89,68.91.82c0-.66.2-.85.82-.78.28,0,.57,0,.85,0s.63-.22.68.24.16.82-.37,1c-1,.33-1.13,1-1.1,2,.07,2.83,0,5.65,0,8.48,0,.45,0,.75.59.62a.64.64,0,0,1,.63.26c1.94,2,3.9,3.92,5.82,5.9A1.43,1.43,0,0,0,78,19c8.64.05,17.29.13,26,.16a88.54,88.54,0,0,1,9.21.69c2.72.29,5.44.54,8.16.82s5.43.59,8.14.88q2.75.3,5.48.55c.39,0,.52.09.44.54-.23,1.23-.41,2.5-.58,3.75,0,.37.05,1-.26,1a2,2,0,0,1-1.44-.27,20.08,20.08,0,0,1-1.78-1.23,2.12,2.12,0,0,0-1.77-.39l-9.81,1.3-9.47,1.27c-.74.1-1.48.16-2.21.3s-.6-.34-.7-.71c-.15-.53.28-.51.56-.55,1.51-.24,3-.47,4.53-.67.38,0,.54-.16.53-.56V22.94c0-.2.08-.45-.28-.48a64.17,64.17,0,0,0-7.72-.53Zm23.42,2.11a8.07,8.07,0,0,0-2.13-.31c-4-.41-7.91-.78-11.86-1.19-.33,0-.41.07-.41.38,0,.78-.07,1.57-.09,2.36s0,.93.92.8ZM76.09,19.06l.22-.42c-1.11-1-2.23-2-3.32-3.08-.77-.73-1.49-1.48-2.22-2.24a.7.7,0,0,0-.77-.2c-.29.1-.16.38-.15.57,0,1.62.08,3.24.12,4.86,0,.3,0,.51.41.5Z"/><path class="cls-1" d="M56.37,5.63a7.9,7.9,0,0,1,5.08-1.16c.82,0,1.65,0,2.49,0,.39,0,.47.1.46.48-.15,4.27-.2,8.54-.46,12.8-.13,2.1-.2,4.2-.3,6.3,0,1.14-.08,1.12-1.19,1.21-1.65.12-3.3.07-4.94.1a.82.82,0,0,1-.87-.51A10.43,10.43,0,0,0,53.8,21.2,5.08,5.08,0,0,0,50.51,20c-.56,0-.74-.2-.74-.69a24.43,24.43,0,0,1,.47-7,3.47,3.47,0,0,0,.06-.45A8.23,8.23,0,0,1,52.48,9,12.09,12.09,0,0,0,54.2,7.15,16.25,16.25,0,0,1,56.37,5.63Zm7,3.56V6c0-.78-.25-1-1-1H60a5.49,5.49,0,0,0-3.09.92,23.35,23.35,0,0,0-5,4.53,4.85,4.85,0,0,0-1.35,2.49c-.14.9.11,1.23,1,1.2,2.49-.09,5-.19,7.48-.3,1.05,0,2.1-.09,3.15-.19.89-.09,1.17-.44,1.19-1.33s0-2.07,0-3.09Z"/><path class="cls-1" d="M52.48,9a8.36,8.36,0,0,0-2.18,2.86,3.75,3.75,0,0,0-.56,2,34.14,34.14,0,0,0-.12,5.72c0,.35,0,.41-.39.46a5.16,5.16,0,0,0-3.66,1.91.53.53,0,0,1-.53.17l-4.27-.29a4.85,4.85,0,0,0,1.78-3,5.16,5.16,0,0,0,.19-1.23,1.32,1.32,0,0,1,.65-1.24,33.92,33.92,0,0,1,3.3-2.15,13.56,13.56,0,0,0,3.06-2.85,42.08,42.08,0,0,1,5.71-5.77A7.77,7.77,0,0,1,59.88,4c2.37-.1,4.73-.11,7.1-.17.55,0,.67.19.67.67q-.11,10.13-.19,20.25c0,.79-.22,1-1,1.06s-1.53,0-2.3,0a.61.61,0,0,0-.71.41c-.24.68-.72.82-1.42.82-1.94-.05-3.88,0-5.88,0,.54-1.3.76-1.44,1.93-1.46a47.3,47.3,0,0,0,5-.12c.48-.05.65-.23.68-.68.08-1.65.18-3.32.27-5,.06-1.18.06-2.37.15-3.55.28-3.75.16-7.51.38-11.26,0-.55-.11-.73-.68-.71-1.47,0-2.93,0-4.4,0a6,6,0,0,0-2.94,1,.42.42,0,0,0-.2.31,15.52,15.52,0,0,0-2.17,1.54A4.66,4.66,0,0,0,52.48,9Z"/><path class="cls-1" d="M80.1,26.51H70.9c-.5,0-.69-.13-.66-.66a25.41,25.41,0,0,0,0-2.76c0-.56.17-.69.7-.69q6.54,0,13.08.05c1.75,0,3.51,0,5.26,0,.52,0,.73.09.7.67a26.53,26.53,0,0,0,0,2.82c0,.5-.13.62-.61.62-3.09,0-6.18,0-9.27,0Z"/><path class="cls-1" d="M55.94,26.53A18.3,18.3,0,0,0,54.85,24c-1.32-2.35-3-3.24-5.48-2.92a5.64,5.64,0,0,0-4.52,4.22,3.29,3.29,0,0,0-.19,1c0,.78-.41.78-1,.66-.36-.09-.72-.14-1.09-.23a3.27,3.27,0,0,1-2.46-3.89c0-.16.09-.32.14-.47a.5.5,0,0,1,.57-.39h0c1.3.12,2.61.2,3.91.35a1,1,0,0,0,1.12-.41A4.57,4.57,0,0,1,49,20.26c3.09-.53,5.12,1,6.75,3.39.2.29.37.6.55.9C56.88,25.53,56.85,25.69,55.94,26.53Z"/><path class="cls-1" d="M49.87,31.43A4.46,4.46,0,0,1,45.15,27,4.75,4.75,0,0,1,50,22.36a4.54,4.54,0,1,1-.09,9.07Zm0-1.16a3.46,3.46,0,0,0,3.55-3.35,3.35,3.35,0,0,0-3.4-3.3h0A3.48,3.48,0,0,0,46.46,27a3.4,3.4,0,0,0,3.4,3.27Z"/><path class="cls-1" d="M100,22.34a4.62,4.62,0,0,1,4.66,3.81,4.52,4.52,0,0,1-3.39,5.14c-2.74.65-5.19-.41-6-3.32a4.64,4.64,0,0,1,3.79-5.57A7,7,0,0,1,100,22.34Zm-.09,7.92a3.36,3.36,0,1,0,0-6.71h0A3.46,3.46,0,0,0,96.5,27a3.3,3.3,0,0,0,3.29,3.3h.12Z"/><path class="cls-1" d="M116.56,11.45a3.91,3.91,0,0,1,4,3.78c0,.11,0,.22,0,.33A4.42,4.42,0,0,1,116,19.74a4,4,0,0,1-4-3.95A4.48,4.48,0,0,1,116.56,11.45Zm-.44,7.14a3.21,3.21,0,0,0,3.32-3.08,2.92,2.92,0,0,0-2.9-3h-.1a3.29,3.29,0,0,0-3.26,3.11A2.9,2.9,0,0,0,116,18.58h.1Z"/><path class="cls-1" d="M87.34,18.52a4,4,0,0,1-4.07-4.12,4.52,4.52,0,0,1,4.47-4.26,4,4,0,0,1,4.15,4A4.42,4.42,0,0,1,87.34,18.52Zm.09-1.15a3.25,3.25,0,0,0,3.3-3.19v0a3,3,0,0,0-3-2.88h0a3.26,3.26,0,0,0-3.24,3.19,2.89,2.89,0,0,0,2.87,2.9Z"/><path class="cls-1" d="M42.51,17.09a5.47,5.47,0,0,1-1.8,4.41A4.89,4.89,0,0,1,42.51,17.09Z"/><path class="cls-1" d="M52.34,26.88a2.42,2.42,0,0,1-2.41,2.37A2.38,2.38,0,0,1,47.52,27a2.47,2.47,0,0,1,2.41-2.37A2.38,2.38,0,0,1,52.34,26.88Z"/><path class="cls-1" d="M100,29.2a2.2,2.2,0,0,1-2.35-2V27a2.35,2.35,0,0,1,2.34-2.35h0a2.32,2.32,0,0,1,2.36,2.28,2.29,2.29,0,0,1-2.25,2.32Z"/><path class="cls-1" d="M116.33,14.44a1.08,1.08,0,0,1,1.17,1v.06a1.19,1.19,0,0,1-1.13,1.21h-.05a1.08,1.08,0,0,1-1.2-.93.71.71,0,0,1,0-.14A1.23,1.23,0,0,1,116.33,14.44Z"/><path class="cls-1" d="M86.41,14.38a1.18,1.18,0,1,1,1.25,1.07h-.08C86.83,15.49,86.47,15.15,86.41,14.38Z"/></g></g></svg>