<svg id="Слой_1" data-name="Слой 1" xmlns="http://www.w3.org/2000/svg" viewBox="0 0 482.32 76.5"><defs><style>.cls-1{fill:#201600;}.cls-2{fill:#d76446;}</style></defs><title>eva-komi-logo</title><path class="cls-1" d="M479.34,280.05l-3.15-1.73a14.16,14.16,0,0,1-5.21-5,22,22,0,0,1-2.89-8h8.32a10.35,10.35,0,0,0,1.41,3.63,6.58,6.58,0,0,0,2.37,2.27,6.41,6.41,0,0,0,3.16.78,7.53,7.53,0,0,0,3.84-.92,6,6,0,0,0,2.42-2.69,9.75,9.75,0,0,0,.83-4.24V252.48a10,10,0,0,0-.83-4.27,5.94,5.94,0,0,0-2.42-2.69,7.43,7.43,0,0,0-3.84-.92,6.19,6.19,0,0,0-3.12.79,7,7,0,0,0-2.37,2.28,10.83,10.83,0,0,0-1.45,3.61h-8.32a21.68,21.68,0,0,1,2.86-8,14,14,0,0,1,5.23-5,14.74,14.74,0,0,1,7.17-1.73,17.26,17.26,0,0,1,8.33,1.87,12.53,12.53,0,0,1,5.27,5.44,18.74,18.74,0,0,1,1.82,8.6v11.69a18.77,18.77,0,0,1-1.82,8.6,12.49,12.49,0,0,1-5.27,5.42,17.37,17.37,0,0,1-8.33,1.86Zm-1.49-25.32H494.4v7.44H477.85Z" transform="translate(-223.48 -217.14)"/><path class="cls-1" d="M506.68,249.2h8v30.41h-8Zm4.1,24.14h9.78a4.1,4.1,0,0,0,2.76-.85,3,3,0,0,0,1-2.38V270a2.89,2.89,0,0,0-1-2.32,4.21,4.21,0,0,0-2.76-.82h-9.78v-6.27h9.78a3.56,3.56,0,0,0,2.35-.69,2.43,2.43,0,0,0,.82-1.95,2.27,2.27,0,0,0-.82-1.86,3.63,3.63,0,0,0-2.29-.65h-9.84V249.2h11.51c3,0,5.37.65,7,2a6.72,6.72,0,0,1,2.49,5.58,7,7,0,0,1-1.49,4.59,6.86,6.86,0,0,1-4.22,2.3,7.66,7.66,0,0,1,4.63,2.77,8.46,8.46,0,0,1,1.64,5.32v.08a6.86,6.86,0,0,1-2.65,5.76q-2.65,2-7.52,2H510.78Z" transform="translate(-223.48 -217.14)"/><path class="cls-1" d="M540.06,277.72c-1.61-1.56-2.42-3.91-2.42-7.08,0-3,.91-5.26,2.71-6.77s4.52-2.25,8.13-2.25h7.62l.41,6.12h-8a4.31,4.31,0,0,0-2.72.72,2.59,2.59,0,0,0-.91,2.18,2.42,2.42,0,0,0,1.14,2.21,6.61,6.61,0,0,0,3.46.72,11.87,11.87,0,0,0,4.79-.73,2.42,2.42,0,0,0,1.57-2.29l.61,4.43a4.15,4.15,0,0,1-1.51,2.78,8.72,8.72,0,0,1-3.34,1.71,15.43,15.43,0,0,1-4.23.58Q542.48,280.05,540.06,277.72Zm15.78-17.39a3.93,3.93,0,0,0-1.41-3.25,6.14,6.14,0,0,0-4-1.15,10.57,10.57,0,0,0-3.36.56,9.92,9.92,0,0,0-3,1.55l-5-4.89a12,12,0,0,1,4.8-3.24,18.22,18.22,0,0,1,6.62-1.15,15.77,15.77,0,0,1,6.8,1.33,9.62,9.62,0,0,1,4.29,3.87,11.86,11.86,0,0,1,1.48,6.1v19.55h-7.29Z" transform="translate(-223.48 -217.14)"/><path class="cls-2" d="M571.63,237h8v42.6h-8Zm3.48,17.58H590.2v7.73H575.11Zm8.35,6.27,7.3-3.08,14.68,21.83H595.39Zm0-4.63L594.39,237h9.26l-14.21,24.46Z" transform="translate(-223.48 -217.14)"/><path class="cls-2" d="M614.09,278.49a10.41,10.41,0,0,1-4.48-4.52,15.4,15.4,0,0,1-1.54-7.17v-4.95a15,15,0,0,1,1.54-7.07,10.39,10.39,0,0,1,4.48-4.49,17.26,17.26,0,0,1,14.21,0,10.34,10.34,0,0,1,4.48,4.49,15,15,0,0,1,1.54,7.07v5a15.17,15.17,0,0,1-1.54,7.11,10.39,10.39,0,0,1-4.48,4.49,17,17,0,0,1-14.21,0Zm10.86-7.6a5.62,5.62,0,0,0,1.34-4v-5a5.49,5.49,0,0,0-1.34-4,5,5,0,0,0-3.78-1.41,4.91,4.91,0,0,0-3.74,1.41,5.49,5.49,0,0,0-1.33,4v5a5.66,5.66,0,0,0,1.32,4,4.86,4.86,0,0,0,3.75,1.42A5,5,0,0,0,625,270.89Z" transform="translate(-223.48 -217.14)"/><path class="cls-2" d="M664.2,249.2h7.21v30.41h-7.29v-20l.29,1.87-5.51,12.22h-4.74l-5.51-12.22.29-1.87v20h-7.29V249.2h7.2l7.68,16.52Z" transform="translate(-223.48 -217.14)"/><path class="cls-2" d="M698.13,279.58V259.45l.7.76-12.27,19.37h-6.95V249.2h7.68v20.62l-.7-.76,12.33-19.86h6.89v30.38Z" transform="translate(-223.48 -217.14)"/><path class="cls-1" d="M340.17,232.37c3.19,0,6.39,0,9.58,0a2.83,2.83,0,0,0,2.14-.79c4.87-4.28,9.78-8.52,14.66-12.8a5.1,5.1,0,0,1,3.63-1.3q22.59.38,45.18.67a5.5,5.5,0,0,1,4.74,2.44c3.13,4.41,6.42,8.71,9.52,13.15,1.95,2.81,2,6.13,1.77,9.37a19,19,0,0,1-2.83,9.83A6.55,6.55,0,0,1,423,256.2c-1.13,0-1.4-.32-1.45-1.42A12.46,12.46,0,0,0,412.14,243c-8.49-2-15.39,2.83-16.36,11.45-.12,1-.34,1.33-1.37,1.3-12.13-.29-24.27-.54-36.4-.82a32.31,32.31,0,0,0-4.29-.09c-1.43.14-2.21-.79-2-2.26a11.9,11.9,0,0,0-9.26-13.24,13.24,13.24,0,0,0-14.49,5.5,12,12,0,0,0-1.86,7.74c.14,1.55-.52,1.78-1.81,1.66-3-.29-4.19-1.51-3.85-4.57.21-1.87.21-3.75,1.9-5.35.94-.88.88-2.85,1.23-4.35a11.87,11.87,0,0,1,2.54-5.72,6.23,6.23,0,0,1,4.95-2.12c3,.05,6.07,0,9.1,0Zm69.16,1.1c-3.14-4.47-6.09-8.67-9-12.88a1.48,1.48,0,0,0-1.41-.53c-4.3,0-8.61-.07-12.92-.16-.92,0-1.15.32-1.19,1.18-.15,3.4-.31,6.8-.62,10.18-.15,1.61.43,2,1.91,1.94,4.89,0,9.79,0,14.68.24C403.49,233.57,406.25,233.47,409.33,233.47Zm-54.07-.93c8.9.16,17.33.29,25.77.46.88,0,1.05-.39,1.08-1.14.18-3.5.36-7,.62-10.49.08-1.11-.21-1.48-1.36-1.46-3.66.07-7.33,0-11,0a2.23,2.23,0,0,0-1.59.57C364.41,224.43,360,228.33,355.26,232.54Zm48.29-11.85c2.63,3.95,5.41,8.06,8.13,12.21a1.71,1.71,0,0,0,1.62.73l12.59.34c.3,0,.67.14.83-.24s-.18-.56-.36-.81l-7.92-11.33a1.6,1.6,0,0,0-1.38-.91C412.56,220.7,408.05,220.69,403.55,220.69Z" transform="translate(-223.48 -217.14)"/><path class="cls-1" d="M380.79,270.68c3.81,3.38,4.82,7.7,4.73,12.44,0,.5-.12.85-.7.8a.85.85,0,0,1-.89-.91,20.81,20.81,0,0,0-.59-4.08,11,11,0,0,0-10.61-8.48c-2.19,0-4.38.11-6.55,0-6.79-.49-10.4,3.29-12.31,8.82-.35,1-.62,2.06-1.82,2.4-.47.14-.95.68-1.45.14s-.08-.9.07-1.35a23.34,23.34,0,0,1,5.48-9.39,2.34,2.34,0,0,0,.24-.4,2.78,2.78,0,0,0-1.73-.22q-30.81-.11-61.63-.18c-1.34,0-2-.23-1.75-1.71a11.92,11.92,0,0,0,0-2.39c-.09-1.53-.26-3.05,2.13-2.64.8.14.73-.59.72-1.11-.06-2.07-.17-4.15-.19-6.22-.15-12.35-.25-24.7-.46-37,0-1.61.49-2.06,2-1.89.68.08,1.39-.08,2.07,0s1.53-.55,1.66.57c.1.89.37,2-.9,2.4-2.33.81-2.75,2.48-2.69,4.82.19,6.86.12,13.73.1,20.6,0,1.08.11,1.82,1.45,1.5a1.52,1.52,0,0,1,1.53.62c4.7,4.77,9.45,9.52,14.11,14.33a3.54,3.54,0,0,0,2.77,1.18c21,.11,42,.3,63.06.39A211.9,211.9,0,0,1,401,265.38c6.6.72,13.21,1.32,19.81,2s13.19,1.44,19.78,2.14q6.66.71,13.31,1.33c.94.08,1.26.21,1.06,1.31-.57,3-1,6.07-1.4,9.12-.12.88.11,2.31-.63,2.46a4.84,4.84,0,0,1-3.51-.64,51.86,51.86,0,0,1-4.33-3,5.17,5.17,0,0,0-4.29-.95c-7.94,1.08-15.88,2.1-23.82,3.16l-23,3.09c-1.79.24-3.59.38-5.36.73-1.61.33-1.46-.82-1.71-1.72-.37-1.3.68-1.24,1.37-1.35,3.66-.58,7.33-1.13,11-1.61.92-.12,1.3-.39,1.28-1.36,0-2.39,0-4.79,0-7.18,0-.49.19-1.09-.68-1.15-6.25-.45-12.44-1.61-18.74-1.31C381.07,270.49,381,270.57,380.79,270.68Zm56.89,5.13a19.92,19.92,0,0,0-5.19-.76c-9.59-1-19.2-1.9-28.8-2.88-.8-.08-1,.15-1,.91,0,1.91-.15,3.82-.2,5.73-.05,2.27,0,2.27,2.23,1.94ZM310.93,263.48l.52-1c-2.69-2.49-5.41-4.95-8.06-7.48-1.85-1.77-3.62-3.61-5.38-5.45a1.7,1.7,0,0,0-1.88-.48c-.7.24-.37.92-.36,1.39.08,3.93.21,7.87.3,11.8,0,.73.11,1.22,1,1.21C301.71,263.47,306.32,263.48,310.93,263.48Z" transform="translate(-223.48 -217.14)"/><path class="cls-1" d="M263.05,230.87c3.75-2.5,7.92-3.09,12.32-2.82,2,.13,4,.06,6.06,0,.93,0,1.13.26,1.1,1.17-.36,10.37-.48,20.74-1.12,31.09-.31,5.1-.48,10.2-.71,15.3-.13,2.76-.21,2.72-2.9,2.93-4,.3-8,.19-12,.26a2,2,0,0,1-2.1-1.25,25.59,25.59,0,0,0-6.9-8.85,12.35,12.35,0,0,0-8-3c-1.35,0-1.78-.48-1.8-1.68-.09-5.68-.39-11.37,1.14-16.95a7.87,7.87,0,0,0,.15-1.1,20.21,20.21,0,0,1,5.29-6.91c1.39-1.49,3.1-2.69,4.18-4.48C259.56,233.39,261.05,231.77,263.05,230.87Zm17.09,8.65c0-2.61,0-5.22,0-7.82,0-1.89-.61-2.44-2.49-2.45s-3.84,0-5.75,0a13.37,13.37,0,0,0-7.5,2.23,56,56,0,0,0-12.11,11c-1.55,1.77-2.94,3.6-3.3,6.05-.32,2.18.29,3,2.47,2.92,6.05-.23,12.11-.46,18.16-.73,2.55-.11,5.1-.23,7.64-.47,2.16-.22,2.86-1.07,2.89-3.22C280.17,244.52,280.14,242,280.14,239.52Z" transform="translate(-223.48 -217.14)"/><path class="cls-1" d="M253.59,239.07A20.21,20.21,0,0,0,248.3,246c-1.12,1.41-1.14,3.17-1.37,4.8-.65,4.6-.4,9.24-.29,13.87,0,.86-.11,1-.93,1.12-3.5.49-6.68,1.69-8.91,4.64a1.26,1.26,0,0,1-1.28.41l-10.37-.7a11.8,11.8,0,0,0,4.33-7.3,12.82,12.82,0,0,0,.46-3,3.19,3.19,0,0,1,1.58-3,79.26,79.26,0,0,1,8-5.22c3-1.71,5.13-4.43,7.43-6.93,4.45-4.85,8.54-10.06,13.87-14a18.8,18.8,0,0,1,10.75-3.84c5.75-.24,11.49-.27,17.24-.42,1.34,0,1.63.46,1.62,1.64q-.26,24.59-.47,49.17c0,1.92-.53,2.49-2.44,2.56s-3.73.09-5.59,0a1.5,1.5,0,0,0-1.72,1c-.59,1.66-1.76,2-3.45,2-4.72-.12-9.43,0-14.27,0,1.29-3.16,1.84-3.5,4.67-3.55a122.77,122.77,0,0,0,12.28-.28c1.15-.13,1.58-.57,1.63-1.66.21-4,.46-8.06.66-12.1.15-2.87.15-5.75.36-8.61.68-9.11.39-18.25.94-27.36.08-1.32-.28-1.76-1.65-1.71-3.57.12-7.13.06-10.7.12-2.63,0-4.89,1.24-7.12,2.49a1,1,0,0,0-.49.77c-2,.9-3.49,2.52-5.28,3.72C256.22,235.94,254.37,237,253.59,239.07Z" transform="translate(-223.48 -217.14)"/><path class="cls-1" d="M320.67,281.58c-7.44,0-14.89,0-22.34,0-1.22,0-1.67-.3-1.61-1.59a65.1,65.1,0,0,0,0-6.7c-.07-1.38.41-1.69,1.7-1.68,10.59.07,21.18.08,31.76.11,4.26,0,8.52.06,12.77,0,1.26,0,1.79.22,1.71,1.63a65.41,65.41,0,0,0,0,6.86c.06,1.21-.31,1.5-1.49,1.49-7.5-.05-15,0-22.51,0Z" transform="translate(-223.48 -217.14)"/><path class="cls-1" d="M262,281.63a47.51,47.51,0,0,0-2.65-6.27c-3.22-5.7-7.26-7.86-13.3-7.08-5.08.65-9.51,4.78-11,10.25a8.39,8.39,0,0,0-.45,2.49c.09,1.91-1,1.91-2.32,1.6-.88-.2-1.77-.34-2.65-.55A7.91,7.91,0,0,1,224,271.48a1.17,1.17,0,0,1,1.39-.93c3.16.31,6.34.5,9.51.86a2.52,2.52,0,0,0,2.71-1c1.84-2.5,4.55-3.48,7.51-4,7.51-1.3,12.42,2.53,16.39,8.24.48.7.89,1.44,1.33,2.17C264.27,279.21,264.21,279.59,262,281.63Z" transform="translate(-223.48 -217.14)"/><path class="cls-1" d="M247.25,293.52c-6,.75-11.47-4.76-11.46-10.8a11.54,11.54,0,0,1,11.69-11.22A11.23,11.23,0,0,1,259,282.42C259.06,288.61,253.32,294.31,247.25,293.52Zm0-2.81a8.4,8.4,0,0,0,8.63-8.14,8.13,8.13,0,0,0-8.32-8,8.45,8.45,0,0,0-8.6,8.21A8.27,8.27,0,0,0,247.22,290.71Z" transform="translate(-223.48 -217.14)"/><path class="cls-1" d="M369,271.46c5.69,0,10.57,4,11.32,9.26a11,11,0,0,1-8.24,12.48c-6.65,1.58-12.61-1-14.51-8.07-1.62-6,2.76-12.33,9.21-13.53A16.34,16.34,0,0,1,369,271.46Zm-.22,19.22a8.14,8.14,0,1,0,.07-16.28,8.4,8.4,0,0,0-8.36,8.27A8,8,0,0,0,368.82,290.68Z" transform="translate(-223.48 -217.14)"/><path class="cls-1" d="M409.2,245a9.52,9.52,0,0,1,9.84,10c0,5.63-5.13,10.21-11.27,10.15a9.79,9.79,0,0,1-9.7-9.6A10.88,10.88,0,0,1,409.2,245Zm-1.06,17.35a7.81,7.81,0,0,0,8.07-7.49,7.13,7.13,0,0,0-7.29-7.21,8,8,0,0,0-7.91,7.56A7,7,0,0,0,408.14,262.32Z" transform="translate(-223.48 -217.14)"/><path class="cls-1" d="M338.24,262.17c-5.45-.27-9.84-3.71-9.88-10,0-5.44,5.07-10.28,10.86-10.33,5.51-.05,10.31,4.41,10.07,9.73C349,257.7,344.83,261.86,338.24,262.17Zm.23-2.79a7.87,7.87,0,0,0,8-7.78,7.15,7.15,0,0,0-7.38-7,7.92,7.92,0,0,0-7.86,7.75A7,7,0,0,0,338.47,259.38Z" transform="translate(-223.48 -217.14)"/><path class="cls-1" d="M229.38,258.71c-.17,4.25-.94,7.85-4.38,10.7C224.74,265,225.92,261.61,229.38,258.71Z" transform="translate(-223.48 -217.14)"/><path class="cls-1" d="M253.24,282.49a5.84,5.84,0,0,1-5.83,5.74,5.75,5.75,0,0,1-5.86-5.5,6,6,0,0,1,5.84-5.76A5.76,5.76,0,0,1,253.24,282.49Z" transform="translate(-223.48 -217.14)"/><path class="cls-1" d="M368.86,288.11a5.32,5.32,0,0,1-5.7-5.45,5.7,5.7,0,0,1,5.76-5.71,5.64,5.64,0,0,1,5.73,5.54A5.54,5.54,0,0,1,368.86,288.11Z" transform="translate(-223.48 -217.14)"/><path class="cls-1" d="M408.66,252.27a2.62,2.62,0,0,1,2.83,2.55,2.84,2.84,0,0,1-2.87,2.93,2.61,2.61,0,0,1-2.94-2.6A3,3,0,0,1,408.66,252.27Z" transform="translate(-223.48 -217.14)"/><path class="cls-1" d="M336,252.12a2.85,2.85,0,0,1,5.69-.39,2.84,2.84,0,0,1-2.85,3C337,254.81,336.13,254,336,252.12Z" transform="translate(-223.48 -217.14)"/></svg>
