<svg width="382" height="61" viewBox="0 0 382 61" fill="none" xmlns="http://www.w3.org/2000/svg">
<g clip-path="url(#clip0)">
<path d="M202.642 50.1633L200.148 48.7838C198.453 47.8362 197.031 46.4626 196.021 44.7969C194.853 42.8407 194.076 40.6738 193.732 38.4178H200.322C200.509 39.4451 200.888 40.4273 201.439 41.3123C201.902 42.0656 202.548 42.6883 203.316 43.1224C204.083 43.543 204.945 43.7573 205.818 43.7443C206.879 43.7765 207.929 43.5233 208.86 43.0107C209.703 42.5113 210.372 41.7623 210.776 40.8658C211.244 39.8025 211.469 38.6471 211.434 37.4848V28.1794C211.465 27.0096 211.241 25.8472 210.776 24.7745C210.375 23.8763 209.705 23.1265 208.86 22.6296C207.93 22.1133 206.879 21.8598 205.818 21.896C204.954 21.8829 204.101 22.1002 203.347 22.5259C202.587 22.9732 201.944 23.5964 201.47 24.3439C200.918 25.2258 200.529 26.2011 200.322 27.2225H193.732C194.062 24.9665 194.832 22.7986 195.998 20.8434C197.007 19.172 198.436 17.7971 200.14 16.8565C201.886 15.9196 203.84 15.4449 205.818 15.477C208.107 15.41 210.375 15.9227 212.416 16.9681C214.218 17.9459 215.676 19.4611 216.59 21.3059C217.603 23.4443 218.097 25.7948 218.031 28.1634V37.4848C218.097 39.8533 217.603 42.2036 216.59 44.3424C215.675 46.1825 214.217 47.6923 212.416 48.6642C210.373 49.7033 208.106 50.2131 205.818 50.1473L202.642 50.1633ZM201.462 29.9735H214.57V35.906H201.462V29.9735Z" fill="white"/>
<path d="M224.296 25.564H230.632V49.8125H224.296V25.564ZM227.543 44.8129H235.289C236.075 44.8613 236.852 44.6204 237.475 44.1351C237.739 43.898 237.947 43.6047 238.084 43.2763C238.221 42.948 238.284 42.593 238.267 42.2373V42.1496C238.283 41.801 238.219 41.4533 238.082 41.1329C237.945 40.8124 237.737 40.5275 237.475 40.2996C236.845 39.8298 236.071 39.5983 235.289 39.6458H227.543V34.6462H235.289C235.954 34.6902 236.614 34.4952 237.15 34.096C237.368 33.9029 237.539 33.6627 237.652 33.3934C237.764 33.1242 237.815 32.8328 237.8 32.5411C237.813 32.2601 237.762 31.9797 237.649 31.7223C237.536 31.4648 237.365 31.2373 237.15 31.058C236.621 30.6848 235.982 30.5023 235.336 30.5397H227.543V25.564H236.659C239.035 25.564 240.912 26.0823 242.203 27.1587C242.858 27.6907 243.378 28.3713 243.721 29.1447C244.063 29.9182 244.219 30.7624 244.175 31.6081C244.225 32.9304 243.807 34.2275 242.995 35.2681C242.137 36.2652 240.95 36.9166 239.653 37.1021C241.101 37.3663 242.404 38.1513 243.32 39.3109C244.216 40.5369 244.674 42.0319 244.619 43.553V43.6168C244.662 44.4959 244.493 45.3724 244.128 46.172C243.763 46.9716 243.211 47.6706 242.52 48.2097C241.121 49.2729 239.135 49.8045 236.564 49.8045H227.543V44.8129Z" fill="white"/>
<path d="M250.733 48.3058C249.458 47.0619 248.816 45.1881 248.816 42.6604C248.816 40.2682 249.537 38.4661 250.963 37.262C252.388 36.058 254.543 35.4679 257.402 35.4679H263.437L263.762 40.3479H257.425C256.664 40.2913 255.905 40.4934 255.271 40.922C255.023 41.1335 254.828 41.4014 254.703 41.7037C254.577 42.0059 254.525 42.3338 254.55 42.6604C254.529 43.0089 254.601 43.3568 254.76 43.6671C254.919 43.9775 255.159 44.2386 255.453 44.4226C256.298 44.8608 257.245 45.0593 258.194 44.9967C259.485 45.0673 260.776 44.8692 261.987 44.4146C262.356 44.2755 262.673 44.0257 262.895 43.699C263.118 43.3723 263.235 42.9846 263.231 42.5886L263.714 46.121C263.622 46.9899 263.192 47.7868 262.518 48.3377C261.745 48.9801 260.842 49.4454 259.873 49.7013C258.783 50.011 257.655 50.1666 256.523 50.1637C253.941 50.1637 252.011 49.5444 250.733 48.3058ZM263.231 34.4393C263.259 33.9495 263.173 33.4598 262.979 33.0097C262.785 32.5596 262.489 32.1616 262.114 31.8478C261.196 31.1801 260.076 30.8558 258.946 30.9308C258.041 30.9338 257.142 31.0846 256.285 31.3773C255.429 31.6496 254.625 32.0676 253.909 32.6133L249.949 28.7141C250.988 27.5533 252.293 26.6663 253.751 26.1305C255.427 25.5003 257.205 25.1893 258.994 25.2135C260.845 25.1607 262.684 25.523 264.379 26.2741C265.799 26.9279 266.985 28.0051 267.777 29.36C268.595 30.8459 268.999 32.5261 268.949 34.224V49.8129H263.175L263.231 34.4393Z" fill="white"/>
<path d="M275.737 15.8359H282.073V49.8046H275.737V15.8359ZM278.493 29.854H290.444V36.0178H278.493V29.854ZM285.106 34.8536L290.888 32.3976L302.514 49.8046H294.555L285.106 34.8536ZM285.106 31.1617L293.763 15.8359H301.097L289.842 35.34L285.106 31.1617Z" fill="#D76446"/>
<path d="M309.365 48.9198C307.838 48.1208 306.597 46.8605 305.817 45.3156C304.959 43.5366 304.541 41.5752 304.597 39.5984V35.6513C304.541 33.7001 304.96 31.7646 305.817 30.0138C306.6 28.4772 307.841 27.2254 309.365 26.4335C311.134 25.6293 313.052 25.2134 314.992 25.2134C316.933 25.2134 318.851 25.6293 320.62 26.4335C322.146 27.2233 323.387 28.4756 324.168 30.0138C325.025 31.7646 325.444 33.7001 325.387 35.6513V39.6383C325.444 41.5997 325.025 43.5454 324.168 45.3077C323.385 46.8442 322.144 48.096 320.62 48.8879C318.855 49.7054 316.935 50.1286 314.992 50.1286C313.05 50.1286 311.13 49.7054 309.365 48.8879V48.9198ZM317.966 42.8597C318.718 41.9756 319.099 40.8317 319.028 39.6702V35.6832C319.068 35.1074 318.996 34.5291 318.813 33.9817C318.631 33.4343 318.343 32.9286 317.966 32.4937C317.572 32.1072 317.103 31.8076 316.587 31.614C316.072 31.4204 315.522 31.3371 314.973 31.3694C314.428 31.3372 313.883 31.4206 313.373 31.6143C312.862 31.808 312.398 32.1076 312.01 32.4937C311.635 32.9292 311.348 33.4352 311.168 33.9826C310.987 34.53 310.915 35.1079 310.957 35.6832V39.6702C310.885 40.8292 311.259 41.9715 312.003 42.8597C312.389 43.2503 312.854 43.5533 313.366 43.7486C313.878 43.9439 314.426 44.0268 314.973 43.992C315.529 44.0288 316.087 43.947 316.609 43.7519C317.132 43.5568 317.608 43.2528 318.006 42.8597H317.966Z" fill="#D76446"/>
<path d="M349.053 25.564H354.763V49.8125H348.989V33.8647L349.219 35.3559L344.855 45.0999H341.101L336.737 35.3559L336.967 33.8647V49.8125H331.193V25.564H336.895L342.978 38.7368L349.053 25.564Z" fill="#D76446"/>
<path d="M375.925 49.7885V33.7372L376.48 34.3432L366.762 49.7885H361.257V25.564H367.34V42.0061L366.786 41.4L376.551 25.564H382.008V49.7885H375.925Z" fill="#D76446"/>
<path d="M92.4191 12.1441C94.9456 12.1441 97.48 12.1441 100.007 12.1441C100.317 12.1632 100.628 12.1171 100.92 12.0086C101.212 11.9002 101.478 11.7318 101.701 11.5141C105.558 8.10132 109.447 4.7204 113.312 1.30759C114.099 0.596593 115.131 0.22443 116.187 0.270986C128.115 0.47299 140.042 0.651072 151.97 0.805233C152.708 0.782503 153.44 0.94915 154.097 1.2895C154.754 1.62984 155.313 2.13272 155.724 2.75086C158.203 6.26733 160.809 9.69609 163.264 13.2365C164.808 15.4771 164.848 18.1245 164.666 20.708C164.644 23.4779 163.869 26.1889 162.424 28.5463C161.975 29.325 161.334 29.9736 160.562 30.4291C159.791 30.8845 158.915 31.1314 158.021 31.1458C157.126 31.1458 156.912 30.8906 156.872 30.0135C156.82 27.843 156.063 25.7495 154.717 24.0532C153.371 22.3569 151.511 21.1511 149.42 20.6203C142.696 19.0255 137.231 22.8769 136.463 29.7503C136.367 30.5477 136.193 30.8109 135.377 30.7869C125.77 30.5557 116.156 30.3563 106.548 30.1331C105.419 30.0334 104.284 30.0094 103.151 30.0613C102.018 30.1729 101.4 29.4314 101.567 28.2592C101.888 25.8932 101.312 23.4923 99.9521 21.5354C98.5927 19.5785 96.5504 18.2096 94.2328 17.7018C92.1048 17.1262 89.8508 17.2401 87.7907 18.0274C85.7307 18.8146 83.9693 20.2352 82.7566 22.0875C81.5824 23.916 81.0628 26.0931 81.2835 28.2592C81.3944 29.4952 80.8717 29.6786 79.85 29.5829C77.474 29.3516 76.5315 28.3788 76.8008 25.9388C76.9671 24.4477 76.9671 22.9486 78.3056 21.6728C79.0501 20.9711 79.0025 19.4003 79.2797 18.2042C79.5329 16.53 80.2277 14.9549 81.2914 13.6431C81.7777 13.0841 82.3824 12.642 83.0609 12.3494C83.7394 12.0569 84.4744 11.9213 85.2119 11.9527C87.5879 11.9926 90.0193 11.9527 92.4191 11.9527V12.1441ZM147.194 13.0212C144.707 9.45687 142.371 6.10785 140.066 2.75086C139.935 2.58622 139.762 2.46016 139.565 2.38582C139.369 2.31148 139.156 2.29159 138.949 2.32824C135.544 2.32824 132.13 2.27242 128.717 2.20066C127.988 2.20066 127.806 2.45583 127.774 3.14158C127.655 5.85269 127.529 8.5638 127.283 11.259C127.164 12.5427 127.624 12.8537 128.796 12.8059C132.669 12.8059 136.55 12.8059 140.423 12.9973C142.569 13.1009 144.755 13.0212 147.194 13.0212ZM104.37 12.2796C111.419 12.4072 118.096 12.5109 124.78 12.6464C125.477 12.6464 125.612 12.3354 125.636 11.7374C125.778 8.94655 125.921 6.15569 126.127 3.37282C126.19 2.48772 125.961 2.19269 125.05 2.20864C122.151 2.26446 119.244 2.20864 116.338 2.20864C115.875 2.18804 115.423 2.35126 115.078 2.66314C111.617 5.81282 108.125 8.92262 104.37 12.2796ZM142.616 2.8306C144.699 5.98027 146.901 9.25752 149.055 12.5667C149.196 12.7727 149.39 12.936 149.616 13.0387C149.842 13.1413 150.092 13.1794 150.338 13.1488L160.31 13.4199C160.547 13.4199 160.84 13.5315 160.967 13.2285C161.094 12.9255 160.825 12.782 160.682 12.5826L154.409 3.54824C154.31 3.33858 154.156 3.16019 153.963 3.03232C153.771 2.90445 153.547 2.83194 153.316 2.82262C149.752 2.83857 146.18 2.8306 142.616 2.8306Z" fill="white"/>
<path d="M124.59 42.6922C127.608 45.3874 128.408 48.8321 128.337 52.6117C128.337 53.0104 128.242 53.2895 127.782 53.2496C127.687 53.2544 127.592 53.2387 127.503 53.2037C127.414 53.1687 127.334 53.1152 127.267 53.0466C127.201 52.978 127.149 52.8959 127.117 52.8058C127.084 52.7157 127.07 52.6197 127.077 52.524C127.029 51.4266 126.872 50.3368 126.61 49.2706C126.163 47.3592 125.092 45.654 123.569 44.428C122.045 43.202 120.157 42.5262 118.207 42.5088C116.472 42.5088 114.738 42.5965 113.019 42.5088C107.641 42.1181 104.782 45.1322 103.27 49.5417C102.992 50.3391 102.779 51.1844 101.828 51.4555C101.456 51.5671 101.076 51.9977 100.68 51.5671C100.284 51.1365 100.616 50.8495 100.735 50.4906C101.576 47.6856 103.063 45.1202 105.075 43.0032C105.149 42.9035 105.213 42.7967 105.265 42.6842C104.839 42.4793 104.359 42.4178 103.895 42.5088C87.6275 42.4503 71.357 42.4025 55.084 42.3653C54.0227 42.3653 53.5 42.1819 53.698 41.0018C53.7614 40.3681 53.7614 39.7297 53.698 39.096C53.6267 37.876 53.492 36.664 55.3849 36.9909C56.0185 37.1025 55.9631 36.5205 55.9552 36.1058C55.9077 34.4552 55.8205 32.7967 55.8047 31.1461C55.6859 21.2984 55.6067 11.4506 55.4404 1.64279C55.4404 0.359001 55.8285 0.000177868 57.0244 0.135733C57.563 0.199524 58.1253 0.0719426 58.6638 0.135733C59.2024 0.199524 59.8756 -0.302823 59.9786 0.590249C60.0578 1.29992 60.2716 2.18502 59.2658 2.50397C57.4204 3.14985 57.0877 4.48149 57.1353 6.34737C57.2857 11.8174 57.2303 17.2955 57.2145 22.7735C57.2145 23.6347 57.3016 24.2248 58.3629 23.9696C58.5907 23.9257 58.8263 23.949 59.0412 24.0367C59.2562 24.1244 59.4414 24.2728 59.5746 24.464C63.2971 28.2675 67.0591 32.0551 70.7498 35.8905C71.0243 36.2001 71.3633 36.4449 71.7425 36.6075C72.1216 36.7701 72.5318 36.8466 72.9437 36.8314C89.5758 36.9191 106.208 37.0706 122.888 37.1424C128.81 37.2687 134.721 37.7105 140.597 38.4661C145.824 39.0402 151.059 39.5186 156.286 40.0608C161.514 40.6031 166.733 41.2091 171.952 41.7672C175.469 42.1447 178.983 42.4982 182.494 42.8278C183.238 42.8916 183.492 42.9952 183.333 43.8723C182.882 46.2645 182.541 48.7125 182.225 51.1445C182.13 51.8462 182.312 52.9865 181.726 53.1061C180.768 53.2986 179.774 53.1161 178.946 52.5957C177.763 51.8574 176.618 51.0589 175.516 50.2036C175.04 49.8338 174.489 49.5743 173.901 49.4433C173.314 49.3124 172.705 49.3133 172.119 49.4461C165.83 50.3072 159.542 51.1206 153.253 51.9658L135.037 54.4297C133.619 54.6211 132.194 54.7327 130.792 55.0118C129.517 55.275 129.635 54.358 129.437 53.6403C129.144 52.6037 129.976 52.6516 130.522 52.5638C133.421 52.1014 136.328 51.6628 139.235 51.2801C139.963 51.1844 140.264 50.9691 140.248 50.1956C140.248 48.2899 140.248 46.3761 140.248 44.4704C140.248 44.0797 140.399 43.6012 139.71 43.5534C134.76 43.1946 129.857 42.2696 124.868 42.5088C124.812 42.5407 124.757 42.6045 124.59 42.6922ZM169.648 46.7828C168.31 46.3993 166.928 46.1955 165.537 46.1768C157.942 45.3794 150.331 44.6618 142.727 43.8803C142.094 43.8165 141.935 43.9999 141.935 44.6059C141.935 46.1289 141.816 47.6519 141.777 49.175C141.737 50.985 141.777 50.985 143.543 50.7219L169.648 46.7828ZM69.2609 36.951L69.6727 36.1537C67.5422 34.1682 65.388 32.2066 63.2892 30.1892C61.8239 28.7778 60.4221 27.3106 59.0282 25.8435C58.8484 25.6344 58.6094 25.4856 58.3432 25.4172C58.0771 25.3488 57.7965 25.364 57.5392 25.4607C56.9848 25.6521 57.2461 26.1943 57.2541 26.5691C57.3174 29.7028 57.4204 32.8445 57.4917 35.9782C57.4917 36.5603 57.5788 36.951 58.2837 36.9431C61.9586 36.9431 65.6097 36.951 69.2609 36.951Z" fill="white"/>
<path d="M31.3396 10.9478C34.3097 8.95437 37.6123 8.48392 41.0971 8.69922C42.6812 8.80288 44.2652 8.74706 45.8967 8.69922C46.6333 8.69922 46.7917 8.90653 46.7679 9.63216C46.4828 17.901 46.3877 26.1699 45.8809 34.4229C45.6353 38.4895 45.5007 42.5562 45.3185 46.6229C45.2156 48.8236 45.1522 48.7918 43.0217 48.9592C39.8537 49.1984 36.6857 49.1107 33.5177 49.1665C33.17 49.2089 32.8182 49.134 32.5173 48.9537C32.2163 48.7733 31.9833 48.4977 31.8545 48.1698C30.5739 45.4394 28.7074 43.0292 26.3896 41.1129C24.6275 39.582 22.381 38.7338 20.0536 38.7208C18.9844 38.7208 18.6438 38.338 18.628 37.3812C18.5567 32.852 18.3191 28.3149 19.5308 23.8655C19.5909 23.5763 19.6306 23.2832 19.6496 22.9884C20.6322 20.8672 22.0619 18.987 23.8394 17.4784C24.9402 16.2903 26.2946 15.3335 27.1499 13.9061C28.5756 12.9573 29.7556 11.6655 31.3396 10.9478ZM44.875 17.8452C44.875 15.7641 44.875 13.6829 44.875 11.6097C44.875 10.1026 44.3919 9.66405 42.9029 9.65608C41.4139 9.6481 39.8616 9.65608 38.3489 9.65608C36.2371 9.63917 34.1684 10.2584 32.4088 11.4342C28.8025 13.8695 25.571 16.8248 22.8177 20.2055C21.5901 21.6169 20.4892 23.0761 20.2041 25.0297C19.9506 26.768 20.4337 27.4218 22.1603 27.358C26.9519 27.1746 31.7515 26.9912 36.5431 26.7759C38.5627 26.6882 40.5824 26.5925 42.594 26.4012C44.3048 26.2257 44.8592 25.548 44.8829 23.8336C44.8988 21.8322 44.875 19.8227 44.875 17.8452Z" fill="white"/>
<path d="M23.8473 17.4867C22.068 18.9998 20.6382 20.8856 19.6576 23.0126C18.7705 24.1369 18.7547 25.5403 18.5725 26.84C18.0577 30.508 18.2557 34.2079 18.3428 37.8998C18.3428 38.5855 18.2557 38.6971 17.6063 38.7928C14.8343 39.1835 12.3157 40.1404 10.5495 42.4927C10.4284 42.638 10.2689 42.7458 10.0895 42.8036C9.91013 42.8615 9.71813 42.867 9.53574 42.8196L1.32263 42.2615C3.14329 40.8166 4.36555 38.7419 4.75202 36.4405C4.96711 35.6605 5.08941 34.8575 5.11634 34.0484C5.08049 33.5715 5.17887 33.0942 5.40021 32.6711C5.62155 32.2479 5.95687 31.8962 6.36771 31.6562C8.39469 30.1418 10.5105 28.7518 12.7038 27.4939C15.0798 26.1303 16.7667 23.9614 18.5884 21.968C22.1128 18.1007 25.3521 13.9463 29.5735 10.8046C32.0277 8.92017 35.0029 7.85018 38.0875 7.74263C42.6416 7.55125 47.1877 7.52732 51.7417 7.40771C52.803 7.40771 53.0327 7.77452 53.0247 8.71544C52.8875 21.7872 52.7634 34.8564 52.6525 47.9229C52.6525 49.4539 52.2327 49.9084 50.72 49.9642C49.2073 50.02 47.7658 50.0359 46.2927 49.9642C46.0081 49.9066 45.7123 49.9559 45.4614 50.1028C45.2104 50.2497 45.0215 50.484 44.9304 50.7616C44.4632 52.0852 43.5365 52.3563 42.198 52.3563C38.4598 52.2607 34.7294 52.3563 30.8961 52.3563C31.9178 49.8366 32.3534 49.5655 34.5948 49.5256C37.8384 49.6146 41.0844 49.5401 44.3206 49.3024C45.2314 49.1987 45.572 48.8479 45.6116 47.9787C45.7779 44.7892 45.9759 41.5518 46.1343 38.3303C46.2531 36.0418 46.2531 33.7454 46.4194 31.4649C46.958 24.2007 46.7283 16.9126 47.1639 9.64838C47.2273 8.59583 46.9421 8.24497 45.8571 8.28484C43.0296 8.38053 40.2101 8.33268 37.3826 8.38053C35.2997 8.38053 33.5097 9.36929 31.7436 10.366C31.6351 10.43 31.5434 10.5191 31.4759 10.6258C31.4084 10.7326 31.3671 10.854 31.3555 10.98C29.7715 11.6977 28.5914 12.9894 27.1737 13.9463C25.9302 14.9909 24.465 15.8361 23.8473 17.4867Z" fill="white"/>
<path d="M76.975 51.3837C71.0825 51.3837 65.182 51.3837 59.2816 51.3837C58.3153 51.3837 57.9589 51.1445 58.0065 50.1159C58.0975 48.3362 58.0975 46.5531 58.0065 44.7734C57.951 43.673 58.3312 43.4258 59.3529 43.4338C67.7402 43.4896 76.1275 43.4976 84.5069 43.5215C87.8809 43.5215 91.2548 43.5693 94.6209 43.5215C95.6188 43.5215 96.0386 43.6969 95.9752 44.8212C95.8802 46.6433 95.8802 48.4692 95.9752 50.2913C96.0227 51.2561 95.7297 51.4874 94.7951 51.4794C88.8551 51.4395 82.915 51.4794 76.9671 51.4794L76.975 51.3837Z" fill="white"/>
<path d="M30.508 51.4233C29.9281 49.7084 29.2267 48.0376 28.4092 46.4237C25.859 41.8786 22.6593 40.1563 17.8756 40.7782C13.8522 41.2965 10.3436 44.5897 9.1635 48.9514C8.94569 49.5913 8.82552 50.2607 8.8071 50.9369C8.87838 52.4599 8.01509 52.4599 6.96964 52.2127C6.27268 52.0532 5.5678 51.9416 4.87083 51.7742C3.99103 51.5745 3.16443 51.1859 2.44752 50.635C1.73061 50.084 1.14029 49.3838 0.716926 48.582C0.293565 47.7803 0.0471366 46.896 -0.00551823 45.9895C-0.058173 45.083 0.0841912 44.1758 0.411839 43.3299C0.434524 43.2078 0.4812 43.0915 0.549125 42.9878C0.61705 42.8841 0.704853 42.7951 0.807394 42.726C0.909935 42.6569 1.02515 42.6092 1.14627 42.5855C1.26739 42.5619 1.39197 42.5628 1.51273 42.5883C4.01546 42.8355 6.53404 42.987 9.04469 43.274C9.44049 43.3787 9.85869 43.3583 10.2426 43.2157C10.6265 43.073 10.9576 42.8151 11.191 42.4766C12.6483 40.4832 14.7947 39.7017 17.139 39.2871C23.0869 38.2505 26.9757 41.3045 30.12 45.8576C30.5001 46.4157 30.8248 47.0058 31.1733 47.5879C32.3059 49.4936 32.2584 49.7966 30.508 51.4233Z" fill="white"/>
<path d="M18.826 60.9043C14.0739 61.5023 9.74166 57.1087 9.74958 52.2925C9.81596 49.8757 10.8244 47.5823 12.557 45.9081C14.2895 44.2339 16.6069 43.3135 19.0081 43.3458C21.3646 43.2837 23.6491 44.1659 25.3599 45.7986C27.0707 47.4312 28.0678 49.6809 28.132 52.0533C28.1796 56.9891 23.6334 61.5342 18.826 60.9043ZM18.826 58.6636C20.5866 58.713 22.2948 58.0575 23.5761 56.8407C24.8574 55.624 25.6071 53.9454 25.661 52.1729C25.6476 51.3175 25.4662 50.4731 25.1272 49.6886C24.7882 48.904 24.2983 48.1948 23.6857 47.6018C23.0731 47.0088 22.35 46.5437 21.5581 46.2334C20.7662 45.9231 19.9211 45.7737 19.0715 45.7938C17.3085 45.7616 15.6042 46.4312 14.3288 47.657C13.0534 48.8828 12.31 50.5658 12.2603 52.3404C12.3297 54.0405 13.0493 55.6478 14.2685 56.8262C15.4877 58.0047 17.1121 58.663 18.8022 58.6636H18.826Z" fill="white"/>
<path d="M115.253 43.3141C119.759 43.3141 123.624 46.5037 124.218 50.6979C124.576 52.8794 124.103 55.1167 122.893 56.9619C121.683 58.8071 119.825 60.1242 117.692 60.6493C112.425 61.9092 107.705 59.8519 106.2 54.2144C104.917 49.4301 108.386 44.3826 113.494 43.4258C114.077 43.3484 114.665 43.3111 115.253 43.3141ZM115.078 58.6399C116.788 58.6473 118.431 57.9705 119.645 56.7585C120.859 55.5465 121.546 53.8985 121.553 52.1771C121.56 50.4556 120.888 48.8018 119.684 47.5793C118.481 46.3568 116.844 45.6659 115.134 45.6585C113.393 45.6666 111.724 46.3617 110.486 47.5946C109.248 48.8275 108.54 50.5 108.513 52.2528C108.511 53.1138 108.682 53.9663 109.016 54.7588C109.351 55.5514 109.841 56.2676 110.457 56.8644C111.073 57.4612 111.803 57.9261 112.603 58.2313C113.403 58.5364 114.256 58.6754 115.11 58.6399H115.078Z" fill="white"/>
<path d="M147.091 22.2151C148.135 22.1784 149.176 22.3605 150.146 22.7499C151.117 23.1393 151.996 23.7276 152.729 24.4773C153.462 25.227 154.032 26.1219 154.403 27.1051C154.774 28.0883 154.938 29.1385 154.885 30.1889C154.885 34.6782 150.822 38.3302 145.959 38.2824C143.94 38.2641 142.009 37.4542 140.574 36.0248C139.14 34.5954 138.315 32.6592 138.276 30.6275C138.345 28.3376 139.31 26.1679 140.961 24.5918C142.613 23.0158 144.816 22.1614 147.091 22.2151ZM146.252 36.0497C147.885 36.1058 149.473 35.5093 150.671 34.3903C151.868 33.2713 152.577 31.7208 152.643 30.0773C152.652 29.3145 152.508 28.5577 152.22 27.852C151.932 27.1464 151.506 26.5062 150.967 25.9698C150.429 25.4333 149.788 25.0115 149.084 24.7295C148.38 24.4475 147.627 24.311 146.869 24.3281C145.26 24.3439 143.717 24.9758 142.553 26.0954C141.39 27.215 140.693 28.7384 140.605 30.3564C140.593 31.1055 140.731 31.8494 141.011 32.5437C141.291 33.238 141.706 33.8684 142.233 34.3975C142.76 34.9265 143.388 35.3433 144.078 35.6231C144.768 35.9028 145.508 36.0398 146.252 36.0258V36.0497Z" fill="white"/>
<path d="M90.8905 35.9065C86.5741 35.6912 83.0972 32.9482 83.0655 27.9326C83.0655 23.5949 87.081 19.7355 91.6667 19.6956C96.0306 19.6558 99.8323 23.2121 99.6422 27.4542C99.4125 32.3422 96.1098 35.6593 90.8905 35.9065ZM91.0727 33.6818C91.8939 33.6955 92.7097 33.5457 93.4732 33.2409C94.2367 32.9362 94.9328 32.4825 95.5216 31.906C96.1104 31.3296 96.5802 30.6416 96.9041 29.8817C97.228 29.1218 97.3994 28.305 97.4087 27.4781C97.3934 26.7239 97.2295 25.9801 96.9266 25.2901C96.6237 24.6001 96.1878 23.9774 95.6441 23.4582C95.1004 22.939 94.4598 22.5337 93.7594 22.2656C93.059 21.9975 92.3127 21.872 91.5637 21.8964C89.9314 21.9085 88.3681 22.5607 87.2057 23.7146C86.0433 24.8685 85.3736 26.4331 85.3386 28.0762C85.3349 28.8276 85.482 29.572 85.771 30.2648C86.06 30.9575 86.485 31.5844 87.0204 32.1079C87.5559 32.6313 88.1908 33.0405 88.8871 33.311C89.5834 33.5814 90.3268 33.7076 91.0727 33.6818Z" fill="white"/>
<path d="M4.67285 33.1475C4.53821 36.5363 3.92836 39.4069 1.20387 41.6795C0.997945 38.163 1.93252 35.4599 4.67285 33.1475Z" fill="white"/>
<path d="M23.5701 52.1092C23.5493 53.329 23.0539 54.4919 22.1905 55.3478C21.327 56.2037 20.1644 56.6843 18.9527 56.6862C17.7634 56.7103 16.612 56.2649 15.7447 55.4453C14.8774 54.6257 14.363 53.4971 14.3115 52.3006C14.3594 51.0869 14.8639 49.937 15.7229 49.0841C16.5818 48.2312 17.7308 47.7391 18.9368 47.7077C20.1268 47.6879 21.2773 48.1371 22.1429 48.9594C23.0085 49.7817 23.5206 50.9121 23.5701 52.1092Z" fill="white"/>
<path d="M115.142 56.5903C114.555 56.6328 113.966 56.5511 113.412 56.3505C112.858 56.1498 112.353 55.8347 111.927 55.4253C111.502 55.0159 111.167 54.5213 110.943 53.9735C110.719 53.4257 110.611 52.8367 110.627 52.2446C110.626 51.643 110.744 51.0471 110.973 50.4916C111.202 49.9361 111.539 49.432 111.963 49.0085C112.388 48.585 112.891 48.2505 113.445 48.0244C113.999 47.7983 114.592 47.6852 115.189 47.6915C116.373 47.6723 117.515 48.1267 118.366 48.955C119.217 49.7832 119.707 50.9176 119.727 52.109C119.737 52.7116 119.623 53.3098 119.394 53.8667C119.165 54.4235 118.826 54.9274 118.396 55.3472C117.967 55.7669 117.456 56.0938 116.897 56.3076C116.337 56.5214 115.74 56.6176 115.142 56.5903Z" fill="white"/>
<path d="M146.664 28.0121C146.945 27.9893 147.228 28.0245 147.496 28.1157C147.763 28.2069 148.01 28.3521 148.219 28.5425C148.429 28.7328 148.598 28.9643 148.716 29.2228C148.834 29.4812 148.898 29.7612 148.905 30.0455C148.915 30.3509 148.863 30.6551 148.752 30.9398C148.642 31.2245 148.476 31.4838 148.264 31.702C148.051 31.9203 147.797 32.0931 147.517 32.2099C147.236 32.3267 146.935 32.3852 146.632 32.3818C146.34 32.4193 146.043 32.3935 145.762 32.3064C145.481 32.2192 145.222 32.0726 145.001 31.8763C144.781 31.6801 144.604 31.4387 144.484 31.1683C144.364 30.898 144.302 30.6049 144.303 30.3086C144.328 29.6936 144.587 29.1118 145.026 28.6841C145.466 28.2564 146.052 28.0158 146.664 28.0121Z" fill="white"/>
<path d="M89.1164 27.8928C89.0755 27.2911 89.2736 26.6977 89.6672 26.2431C90.0608 25.7885 90.6176 25.5099 91.2152 25.4687C91.8128 25.4275 92.4022 25.6269 92.8538 26.0232C93.3053 26.4195 93.582 26.9801 93.6229 27.5818C93.6402 27.8904 93.5946 28.1993 93.4888 28.4895C93.3831 28.7797 93.2194 29.045 93.008 29.2691C92.7965 29.4932 92.5417 29.6714 92.2593 29.7926C91.9768 29.9138 91.6727 29.9755 91.3657 29.9739C89.9084 30.0377 89.2194 29.3918 89.1164 27.8928Z" fill="white"/>
</g>
<defs>
<clipPath id="clip0">
<rect width="382" height="61" fill="white"/>
</clipPath>
</defs>
</svg>
