<svg width="118" height="118" viewBox="0 0 118 118" fill="none" xmlns="http://www.w3.org/2000/svg">
<g clip-path="url(#clip0)">
<path d="M62.6822 0C65.488 0.428595 68.3133 0.740301 71.0802 1.30527C77.8576 2.68659 84.3276 5.28739 90.1753 8.98101L92.2601 10.2668L101.321 1.20786L108.588 29.2224L80.5887 21.8973L86.9213 15.5853C79.9635 11.1178 72.0343 8.38642 63.8009 7.62093C55.5674 6.85544 47.2705 8.07823 39.6081 11.1864C31.9457 14.2946 25.142 19.1973 19.7694 25.482C14.3967 31.7667 10.6123 39.2496 8.7344 47.3012C6.85655 55.3528 6.9402 63.7376 8.97833 71.7502C11.0165 79.7627 14.9495 87.1687 20.4464 93.345C25.9434 99.5213 32.8436 104.287 40.5664 107.242C48.2893 110.197 56.609 111.254 64.8255 110.324C77.4205 109.021 89.0608 103.018 97.4236 93.5116C105.964 84.0825 110.681 71.8085 110.654 59.0877H117.941V62.984C117.849 63.2708 117.777 63.5637 117.727 63.8607C117.084 67.4648 116.772 71.1663 115.778 74.6924C112.02 88.5041 103.358 100.474 91.4117 108.362C79.4659 116.251 65.0549 119.518 50.8744 117.552C43.2729 116.551 35.9486 114.04 29.3328 110.165C22.7171 106.291 16.9438 101.132 12.3529 94.9922C7.50041 88.8445 3.95951 81.7676 1.94877 74.1984C-0.0619757 66.6292 -0.499889 58.7283 0.662054 50.9833C2.06696 39.6045 6.89069 28.9193 14.4963 20.3388C23.6352 9.68398 36.3213 2.69501 50.2119 0.662374C51.8292 0.409113 53.4464 0.214298 55.0831 0H62.6822Z" fill="black"/>
<path d="M58.0258 70.9325V77.7121H31.5459C31.4013 75.0694 31.995 72.4387 33.2606 70.1143C35.3411 66.7824 38.0954 63.9223 41.3468 61.7177C43.1784 60.276 45.1074 58.9318 46.9195 57.4707C48.0995 56.6303 49.0339 55.4904 49.6265 54.1685C50.219 52.8467 50.4482 51.3907 50.2903 49.9508C50.1871 48.7552 49.6689 47.6334 48.8256 46.7795C47.9822 45.9256 46.8668 45.3935 45.6724 45.2752C44.4904 45.0724 43.275 45.3092 42.2556 45.9409C41.2361 46.5725 40.4832 47.5554 40.1387 48.704C39.775 49.982 39.5016 51.284 39.3204 52.6003H32.111C31.8666 51.0263 31.9407 49.4192 32.3289 47.8744C32.7171 46.3295 33.4114 44.8782 34.3708 43.6066C35.3301 42.3349 36.535 41.2687 37.914 40.4711C39.293 39.6735 40.8182 39.1607 42.399 38.9632C45.8672 38.3378 49.4448 38.9662 52.4921 40.736C54.6645 42.1215 56.3432 44.1582 57.2881 46.555C58.2329 48.9519 58.3957 51.586 57.753 54.0809C57.0103 57.2701 55.0803 60.0566 52.3557 61.8735C49.6863 63.8217 46.9 65.7699 44.2306 67.718C43.1199 68.5557 42.1652 69.6662 41.1325 70.5818L41.2299 70.8545L58.0258 70.9325Z" fill="black"/>
<path d="M83.2976 38.7489V63.0814H87.6817V69.1207H83.3366V77.6731H75.757V69.1986H60.403C60.403 66.9387 60.403 64.7958 60.403 62.6723C60.4678 62.3363 60.6151 62.0216 60.8316 61.7566C65.2871 54.3536 69.7427 46.9701 74.1982 39.6061C74.3355 39.321 74.5562 39.0845 74.8312 38.9279C75.1061 38.7713 75.4223 38.702 75.7375 38.7294C78.1926 38.7878 80.6477 38.7489 83.2976 38.7489ZM75.6596 47.3987H75.4647L66.0341 63.0814H75.6596V47.3987Z" fill="black"/>
<path d="M14.5747 60.0423V56.4966H21.7841V60.0033L14.5747 60.0423Z" fill="black"/>
<path d="M97.4241 60.0228V56.4966H104.614V60.0033L97.4241 60.0228Z" fill="black"/>
<path d="M57.792 20.4557V13.3449H61.3187V20.4557H57.792Z" fill="black"/>
<path d="M57.7725 103.252V96.0443H61.2993V103.252H57.7725Z" fill="black"/>
</g>
<defs>
<clipPath id="clip0">
<rect width="118" height="118" fill="white"/>
</clipPath>
</defs>
</svg>
