<svg width="103" height="134" viewBox="0 0 103 134" fill="none" xmlns="http://www.w3.org/2000/svg">
<g clip-path="url(#clip0)">
<path d="M20.6071 134V118.562H10.3429C8.07715 118.575 5.87134 117.834 4.07232 116.455C2.27331 115.076 0.983125 113.137 0.404674 110.944C0.136787 109.987 0.000946135 108.999 0.000934887 108.005C0.000934887 75.512 0.000934887 43.0187 0.000934887 10.5254C-0.054247 8.08367 0.760934 5.70212 2.30037 3.80757C3.8398 1.91302 6.00285 0.629324 8.40181 0.186565C8.94691 0.062184 9.50427 -0.000397838 10.0633 -2.26849e-08H92.923C95.4421 0.0575677 97.8523 1.03944 99.6959 2.75912C101.539 4.4788 102.688 6.81651 102.923 9.32823C102.923 9.95011 102.923 10.5564 102.923 11.1783C102.923 43.4022 102.923 75.6364 102.923 107.881C102.992 109.563 102.651 111.236 101.928 112.756C101.206 114.275 100.124 115.596 98.7772 116.603C97.0334 117.932 94.8974 118.644 92.7056 118.624C84.165 118.624 75.6295 118.624 67.0992 118.624C65.9812 118.667 64.8794 118.346 63.9601 117.707C63.0409 117.068 62.3541 116.148 62.0034 115.084C61.6527 114.02 61.6573 112.871 62.0163 111.81C62.3753 110.749 63.0693 109.834 63.9935 109.202C64.9431 108.568 66.0671 108.247 67.2079 108.285C73.5125 108.285 79.817 108.285 86.1215 108.285H92.5969V10.3388H10.2963V108.176H20.5295V97.138C21.2904 97.4333 21.9892 97.6976 22.688 98.0086C22.8212 98.1039 22.9195 98.2405 22.9675 98.3973C24.1022 100.632 26.0387 102.354 28.3887 103.219C30.7387 104.084 33.3285 104.028 35.6387 103.061C35.8731 102.969 36.134 102.969 36.3685 103.061C38.6553 104.017 41.216 104.082 43.5486 103.246C45.8813 102.409 47.8175 100.729 48.9776 98.5372C49.1607 98.2818 49.4068 98.0782 49.6919 97.9464C50.2354 97.6821 50.8099 97.4644 51.4311 97.2001V134H51.3224C51.1936 133.873 51.0532 133.759 50.9031 133.658L36.4461 123.988C36.3205 123.874 36.1573 123.811 35.988 123.811C35.8188 123.811 35.6555 123.874 35.53 123.988L21.1351 133.705C20.985 133.805 20.8446 133.92 20.7158 134.047L20.6071 134Z" fill="black"/>
<path d="M51.4922 25.7615H76.8035C77.6704 25.697 78.5396 25.851 79.3317 26.2095C80.1238 26.568 80.8135 27.1195 81.3379 27.8137C81.9283 28.5513 82.2936 29.4439 82.39 30.3842C82.4864 31.3246 82.3098 32.2728 81.8813 33.1152C81.505 33.9991 80.8741 34.7507 80.0693 35.274C79.2645 35.7974 78.3221 36.0688 77.3626 36.0536C72.3314 36.0536 67.3002 36.0536 62.2534 36.0536H25.9169C24.5558 36.1361 23.2177 35.6738 22.197 34.7685C21.1763 33.8632 20.5566 32.589 20.4742 31.2262C20.3918 29.8635 20.8536 28.5238 21.7578 27.5018C22.662 26.4799 23.9347 25.8595 25.2958 25.777H26.4138L51.4922 25.7615Z" fill="black"/>
<path d="M20.6838 88.2606C20.703 87.3675 20.9779 86.4987 21.4758 85.7575C21.5777 85.6349 21.6523 85.4919 21.6945 85.3382C21.7367 85.1844 21.7456 85.0233 21.7206 84.8658C21.6956 84.7083 21.6373 84.5579 21.5496 84.4248C21.4618 84.2917 21.3467 84.1789 21.2118 84.094C20.4698 83.5532 19.897 82.8118 19.5607 81.9568C19.2243 81.1018 19.1382 80.1686 19.3126 79.2664C19.487 78.3642 19.9145 77.5304 20.5451 76.8627C21.1758 76.195 21.9834 75.7211 22.8734 75.4965C23.5411 75.2943 23.7429 74.9679 23.5721 74.2682C23.2967 73.3719 23.2976 72.4133 23.5746 71.5175C23.8516 70.6217 24.3919 69.8303 25.125 69.2465C25.8292 68.6211 26.7062 68.2239 27.6403 68.1073C28.5745 67.9907 29.522 68.1603 30.3581 68.5936C31.0724 68.9201 31.3053 68.8423 31.6314 68.1272C32.0173 67.2761 32.6399 66.5543 33.4248 66.0481C34.2096 65.5419 35.1234 65.2727 36.057 65.2727C36.9906 65.2727 37.9044 65.5419 38.6892 66.0481C39.474 66.5543 40.0966 67.2761 40.4826 68.1272C40.8397 68.8734 41.0261 68.9356 41.787 68.6091C42.6267 68.211 43.5629 68.0621 44.4845 68.1803C45.4062 68.2984 46.2747 68.6786 46.9872 69.2758C47.6996 69.873 48.2262 70.6621 48.5045 71.5497C48.7828 72.4372 48.8011 73.3861 48.5574 74.2838C48.3865 74.999 48.5574 75.3254 49.2406 75.512C50.1323 75.7428 50.9402 76.2225 51.5702 76.8953C52.2001 77.5681 52.6261 78.4062 52.7986 79.312C52.9711 80.2179 52.8829 81.1542 52.5444 82.0118C52.2059 82.8694 51.631 83.6131 50.8866 84.1562C50.7602 84.2344 50.6513 84.3381 50.5671 84.4608C50.4828 84.5834 50.425 84.7223 50.3972 84.8685C50.3695 85.0147 50.3724 85.1651 50.4059 85.3102C50.4394 85.4552 50.5026 85.5916 50.5916 85.7109C51.1042 86.4472 51.4012 87.3123 51.4493 88.2085C51.4973 89.1048 51.2944 89.9967 50.8634 90.7837C50.4324 91.5707 49.7905 92.2217 49.01 92.6631C48.2294 93.1045 47.3412 93.319 46.4455 93.2823C45.5138 93.2823 45.1722 93.5932 45.0013 94.526C44.8976 95.3959 44.5512 96.2189 44.002 96.9008C43.4527 97.5826 42.7227 98.0959 41.8957 98.3817C41.0797 98.6868 40.1947 98.7567 39.3411 98.5836C38.4874 98.4104 37.6994 98.0012 37.0663 97.4023C36.7922 97.1854 36.453 97.0674 36.1036 97.0674C35.7542 97.0674 35.415 97.1854 35.1408 97.4023C34.4896 98.0085 33.6811 98.419 32.8079 98.5867C31.9346 98.7544 31.0318 98.6726 30.2028 98.3506C29.3513 98.0525 28.6046 97.5134 28.0533 96.7986C27.502 96.0838 27.1698 95.2241 27.0971 94.3239C27.0584 94.0259 26.9092 93.7533 26.6791 93.5603C26.4489 93.3673 26.1547 93.2681 25.8548 93.2823C25.1765 93.331 24.4955 93.2358 23.8565 93.0028C23.2175 92.7698 22.6348 92.4043 22.1467 91.9302C21.6585 91.4562 21.2759 90.8842 21.0238 90.2518C20.7717 89.6195 20.6559 88.9409 20.6838 88.2606V88.2606ZM36.057 90.7326C37.6915 90.7326 39.2894 90.2471 40.6482 89.3376C42.0071 88.428 43.0659 87.1354 43.6907 85.6231C44.3155 84.1109 44.4782 82.4471 44.1582 80.8422C43.8382 79.2374 43.0499 77.7636 41.893 76.6075C40.7361 75.4514 39.2626 74.6649 37.6591 74.3475C36.0556 74.0302 34.3941 74.1962 32.8848 74.8246C31.3756 75.453 30.0864 76.5155 29.1806 77.8777C28.2747 79.2399 27.7928 80.8406 27.7959 82.4771C27.8041 84.6667 28.6776 86.7641 30.2255 88.311C31.7734 89.8579 33.8699 90.7285 36.057 90.7326V90.7326Z" fill="black"/>
<path d="M43.728 56.7001H25.9014C24.5737 56.6696 23.3086 56.1288 22.3683 55.1899C21.428 54.2509 20.8846 52.9858 20.8507 51.6566C20.8167 50.3274 21.2949 49.0361 22.186 48.0502C23.0772 47.0644 24.313 46.4597 25.6374 46.3613H61.5391C62.4468 46.3133 63.3507 46.5102 64.1565 46.9314C64.9623 47.3525 65.6404 47.9825 66.12 48.7555C66.6369 49.5149 66.9299 50.4046 66.9656 51.3229C67.0013 52.2411 66.7782 53.1509 66.3219 53.9483C65.8923 54.8072 65.2242 55.5237 64.3978 56.0118C63.5715 56.4999 62.622 56.7389 61.6633 56.7001H43.728V56.7001Z" fill="black"/>
</g>
<defs>
<clipPath id="clip0">
<rect width="103" height="134" fill="white"/>
</clipPath>
</defs>
</svg>
